<svg xmlns="http://www.w3.org/2000/svg" enable-background="new 0 0 512 512" viewBox="0 0 512 512"><path fill="#ffd447" d="M61.294,441.569c-2.643-1.257-3.765-4.416-2.511-7.056c1.259-2.645,4.416-3.762,7.056-2.511
		c21.185,10.076,49.524,4.957,61.443-10.286c1.003-1.285,2.542-2.035,4.171-2.035c0.003,0,0.005,0,0.008,0
		c1.634,0.003,3.173,0.758,4.173,2.048c15.913,20.484,58.392,20.755,74.74-0.026c1.006-1.277,2.539-2.022,4.163-2.022
		c1.696,0.155,3.18,0.758,4.181,2.048c15.945,20.518,58.471,20.718,74.681-0.013c1.003-1.285,2.542-2.035,4.171-2.035
		c0.003,0,0.005,0,0.008,0c1.634,0.003,3.173,0.758,4.173,2.048c15.94,20.518,58.471,20.718,74.676-0.013
		c1.006-1.285,2.544-2.035,4.173-2.035c0.003,0,0.005,0,0.008,0c1.632,0.003,3.173,0.758,4.173,2.048
		c11.853,15.252,40.34,20.347,61.368,10.281c2.632-1.264,5.797-0.15,7.061,2.49c1.264,2.637,0.147,5.8-2.49,7.061
		c-22.85,10.943-53.305,7.148-70.128-8.752c-21.298,20.057-61.999,19.875-83.033,0c-21.264,20.03-61.98,19.906-83.04-0.01
		c-21.38,20.077-62.052,19.877-83.077,0.01C114.527,448.747,84.242,452.472,61.294,441.569z M408.762,305.745
		c-15.519,5.841-36.762,2.404-46.055-9.616c-2.006-2.591-6.376-2.593-8.377,0.003c-12.771,16.518-47.168,16.508-59.933-0.003
		c-1.003-1.295-2.655-2.239-4.189-2.056c-1.632,0-3.173,0.752-4.176,2.04c-12.934,16.598-47.228,16.467-59.945,0.018
		c-0.998-1.293-2.537-2.053-4.168-2.058c-1.518,0.109-3.175,0.74-4.186,2.025c-13.073,16.649-47.315,16.451-60.01,0.031
		c-1.001-1.293-2.542-2.053-4.178-2.056c-0.003,0-0.008,0-0.01,0c-1.632,0-3.173,0.752-4.176,2.04
		c-9.394,12.056-30.627,15.506-46.092,9.588c-2.72-1.037-5.792,0.326-6.839,3.054c-1.045,2.733,0.323,5.794,3.054,6.839
		c17.293,6.612,40.303,4.032,54.058-8.481c17.679,15.954,50.622,16.069,68.351-0.01c17.634,15.931,50.433,16.085,68.307-0.003
		c17.708,15.992,50.587,16.027,68.32,0.008c13.18,11.891,35.759,15.395,53.973,8.551c2.738-1.029,4.121-4.083,3.092-6.821
		C414.554,306.102,411.495,304.724,408.762,305.745z M180.916,199.468c13.396,11.064,36.513,11.17,50.079-0.016
		c13.41,11.102,36.585,11.17,50.066,0c13.501,11.128,36.551,11.141,50.068,0c6.335,5.249,15.418,8.359,25.008,8.359
		c2.852,0,5.714-0.284,8.507-0.846c2.867-0.577,4.727-3.367,4.15-6.234s-3.369-4.721-6.234-4.15
		c-10.697,2.156-22.159-1.337-27.229-7.897c-0.998-1.293-2.539-2.05-4.173-2.056c-1.588,0.147-3.178,0.747-4.189,2.035
		c-8.907,11.397-32.845,11.392-41.748,0c-1.006-1.285-2.544-2.035-4.173-2.035c-0.005,0-0.01,0-0.016,0
		c-1.634,0.005-3.175,0.763-4.173,2.056c-8.87,11.474-32.978,11.23-41.665,0c-1.003-1.295-2.319-2.048-4.189-2.056
		c-1.629,0-3.17,0.75-4.173,2.035c-9.037,11.571-33.097,11.184-41.732,0.021c-1.001-1.293-2.542-2.05-4.176-2.056
		c-0.005,0-0.008,0-0.013,0c-1.629,0-3.17,0.75-4.173,2.035c-5.135,6.573-16.602,10.071-27.297,7.917
		c-2.862-0.574-5.66,1.282-6.234,4.15c-0.577,2.867,1.282,5.657,4.15,6.234C159.688,209.44,172.704,206.317,180.916,199.468z
		 M510.179,504.883c0,2.924-2.371,5.295-5.295,5.295H7.117c-2.924,0-5.295-2.371-5.295-5.295c0-2.924,2.371-5.295,5.295-5.295
		h457.201V380.47c0-11.679-9.502-21.182-21.182-21.182H68.864c-11.679,0-21.182,9.502-21.182,21.182v97.936
		c0,2.924-2.371,5.295-5.295,5.295s-5.295-2.371-5.295-5.295V380.47c0-17.52,14.252-31.772,31.772-31.772h6.027v-75.943
		c0-14.599,11.878-26.477,26.477-26.477h278.114V170.34c0-8.76-7.126-15.886-15.886-15.886H148.391
		c-8.76,0-15.886,7.126-15.886,15.886v54.756c0,2.924-2.371,5.295-5.295,5.295c-2.924,0-5.295-2.371-5.295-5.295V170.34
		c0-14.599,11.878-26.477,26.477-26.477h29.606V88.877c0-8.923,7.26-16.184,16.184-16.184h8.494V63.34
		c-8.918-2.359-15.542-10.421-15.542-20.068c0-9.494,13.515-33.949,16.225-38.756c1.877-3.33,7.348-3.33,9.226,0
		c2.71,4.807,16.225,29.262,16.225,38.756c0,9.648-6.624,17.709-15.542,20.068v9.354h8.494c8.923,0,16.184,7.26,16.184,16.184
		v33.805c0,2.924-2.371,5.295-5.295,5.295s-5.295-2.371-5.295-5.295V88.877c0-3.085-2.508-5.593-5.593-5.593H194.18
		c-3.085,0-5.593,2.508-5.593,5.593v54.986h85.458V88.877c0-8.923,7.26-16.184,16.184-16.184h8.494V63.34
		c-8.918-2.359-15.542-10.421-15.542-20.068c0-9.494,13.515-33.949,16.225-38.756c0.939-1.665,2.702-2.694,4.613-2.694
		s3.674,1.029,4.613,2.694c2.71,4.807,16.222,29.264,16.222,38.756c0,9.647-6.624,17.708-15.54,20.068v9.354h8.494
		c8.923,0,16.184,7.26,16.184,16.184v33.805c0,2.924-2.371,5.295-5.295,5.295c-2.924,0-5.295-2.371-5.295-5.295V88.877
		c0-3.085-2.508-5.593-5.593-5.593h-27.578c-3.085,0-5.593,2.508-5.593,5.593v54.986h78.96c14.599,0,26.477,11.878,26.477,26.477
		v75.938h20.546c14.599,0,26.477,11.878,26.477,26.477v54.754c0,2.924-2.371,5.295-5.295,5.295c-2.924,0-5.295-2.371-5.295-5.295
		v-54.754c0-8.76-7.126-15.886-15.886-15.886h-309.25c-8.76,0-15.886,7.126-15.886,15.886v75.943h357.653
		c17.52,0,31.772,14.252,31.772,31.772v119.118h29.975C507.808,499.588,510.179,501.959,510.179,504.883z M304.018,53.516
		c5.65,0,10.244-4.595,10.244-10.244c0-3.483-4.747-14.353-10.244-24.998c-5.497,10.645-10.247,21.515-10.247,24.998
		C293.771,48.921,298.368,53.516,304.018,53.516z M207.969,53.516c5.65,0,10.247-4.595,10.247-10.244
		c0-3.485-4.75-14.355-10.247-24.998c-5.497,10.645-10.247,21.515-10.247,24.998C197.722,48.921,202.32,53.516,207.969,53.516z"/></svg>