<svg xmlns="http://www.w3.org/2000/svg" enable-background="new 0 0 32 32" viewBox="0 0 32 32"><circle cx="15" cy="5.342" r="1" fill="#ffd447"/><circle cx="23" cy="5.342" r="1" fill="#ffd447"/><circle cx="27" cy="15.342" r="1" fill="#ffd447"/><circle cx="4" cy="19.342" r="1" fill="#ffd447"/><circle cx="24" cy="25.342" r="1" fill="#ffd447"/><polygon fill="#feea98" points="4.075 27.267 11.854 12.417 18.925 19.488"/><polygon fill="#ffd447" points="4.092 27.235 4.075 27.266 18.925 19.488 15.382 15.945"/><path fill="#fed208" d="M4.075,27.767c-0.13,0-0.258-0.05-0.354-0.146c-0.154-0.155-0.19-0.392-0.09-0.585l7.778-14.849       c0.074-0.141,0.211-0.238,0.368-0.262c0.158-0.025,0.316,0.027,0.429,0.141l7.071,7.071c0.112,0.112,0.165,0.271,0.141,0.429       c-0.023,0.157-0.121,0.294-0.262,0.368l-14.85,7.778C4.233,27.748,4.154,27.767,4.075,27.767z M11.98,13.252l-6.72,12.829       l12.829-6.72L11.98,13.252z"/><path fill="#fed208" d="M8.557 25.419c-.049 0-.1-.007-.149-.023l-2.794-.873c-.264-.082-.41-.363-.328-.626.083-.264.361-.412.627-.328l2.794.873c.264.082.41.363.328.626C8.967 25.282 8.77 25.419 8.557 25.419zM11.886 23.675c-.049 0-.1-.007-.149-.023l-4.87-1.521c-.264-.082-.41-.363-.328-.626.083-.263.359-.412.627-.328l4.87 1.521c.264.082.41.363.328.626C12.296 23.538 12.099 23.675 11.886 23.675zM15.215 21.931c-.049 0-.1-.007-.149-.023l-6.945-2.17c-.264-.082-.41-.363-.328-.626.083-.264.358-.411.627-.328l6.945 2.17c.264.082.41.363.328.626C15.625 21.794 15.428 21.931 15.215 21.931zM18.544 20.188c-.049 0-.1-.007-.149-.023l-9.022-2.82c-.264-.082-.41-.363-.328-.626.083-.264.36-.413.627-.328l9.022 2.82c.264.082.41.363.328.626C18.954 20.051 18.757 20.188 18.544 20.188zM15.282 16.384c-.049 0-.1-.007-.149-.023l-4.507-1.409c-.264-.082-.41-.363-.328-.626.083-.263.36-.412.627-.328l4.507 1.409c.264.082.41.363.328.626C15.692 16.247 15.495 16.384 15.282 16.384zM8 12.842c-.827 0-1.5-.673-1.5-1.5 0-.384.145-.734.383-1-.238-.266-.383-.616-.383-1s.145-.734.383-1C6.645 8.076 6.5 7.726 6.5 7.342c0-.827.673-1.5 1.5-1.5.276 0 .5.224.5.5s-.224.5-.5.5c-.275 0-.5.224-.5.5s.225.5.5.5c.276 0 .5.224.5.5s-.224.5-.5.5c-.275 0-.5.224-.5.5s.225.5.5.5c.276 0 .5.224.5.5s-.224.5-.5.5c-.275 0-.5.224-.5.5s.225.5.5.5c.276 0 .5.224.5.5S8.276 12.842 8 12.842zM21.732 13.901c-.384 0-.768-.146-1.061-.438-.195-.195-.195-.512 0-.708.195-.195.512-.195.707 0 .195.195.512.195.707 0 .095-.094.146-.22.146-.354 0-.133-.052-.259-.146-.354-.098-.098-.146-.226-.146-.354s.049-.256.146-.354c.195-.195.512-.195.707 0s.512.195.707 0c.195-.195.195-.512 0-.707-.098-.098-.146-.226-.146-.354s.049-.256.146-.354c.195-.195.512-.195.707 0 .189.188.518.188.707 0 .095-.095.146-.22.146-.354 0-.134-.052-.259-.146-.353-.195-.195-.195-.512 0-.708.195-.195.512-.195.707 0 .283.283.439.66.439 1.061 0 .4-.156.777-.439 1.061-.271.271-.622.417-.978.437-.02.356-.165.706-.437.978s-.622.417-.978.437c-.02.356-.165.707-.437.978C22.501 13.755 22.116 13.901 21.732 13.901zM16.175 25.802c-.17 0-.336-.087-.43-.245-.205-.345-.263-.749-.164-1.137.1-.388.344-.714.688-.919.319-.19.691-.255 1.056-.181.107-.34.335-.644.665-.839.329-.196.701-.25 1.055-.181.11-.353.344-.649.665-.839.344-.205.749-.263 1.137-.163.388.099.715.344.919.688.141.238.062.544-.176.685-.238.14-.545.063-.686-.175-.067-.115-.176-.196-.306-.229-.129-.033-.265-.013-.379.055s-.196.177-.229.306c-.032.129-.014.264.055.378.048.08.07.168.07.255 0 .17-.088.336-.245.43-.237.141-.543.064-.685-.174-.142-.237-.448-.315-.686-.175-.237.141-.315.448-.175.686.047.08.069.167.069.254 0 .171-.088.338-.245.431-.238.14-.544.063-.686-.175-.067-.115-.176-.196-.306-.229-.129-.033-.265-.014-.379.055-.114.068-.196.177-.229.306-.032.129-.014.264.055.378.142.237.063.544-.175.685C16.35 25.78 16.262 25.802 16.175 25.802zM15 6.842c-.827 0-1.5-.673-1.5-1.5s.673-1.5 1.5-1.5 1.5.673 1.5 1.5S15.827 6.842 15 6.842zM15 4.842c-.275 0-.5.224-.5.5s.225.5.5.5.5-.224.5-.5S15.275 4.842 15 4.842zM23 6.842c-.827 0-1.5-.673-1.5-1.5s.673-1.5 1.5-1.5 1.5.673 1.5 1.5S23.827 6.842 23 6.842zM23 4.842c-.275 0-.5.224-.5.5s.225.5.5.5.5-.224.5-.5S23.275 4.842 23 4.842zM27 16.842c-.827 0-1.5-.673-1.5-1.5s.673-1.5 1.5-1.5 1.5.673 1.5 1.5S27.827 16.842 27 16.842zM27 14.842c-.275 0-.5.224-.5.5s.225.5.5.5.5-.224.5-.5S27.275 14.842 27 14.842zM4 20.842c-.827 0-1.5-.673-1.5-1.5s.673-1.5 1.5-1.5 1.5.673 1.5 1.5S4.827 20.842 4 20.842zM4 18.842c-.275 0-.5.224-.5.5s.225.5.5.5.5-.224.5-.5S4.275 18.842 4 18.842zM24 26.842c-.827 0-1.5-.673-1.5-1.5s.673-1.5 1.5-1.5 1.5.673 1.5 1.5S24.827 26.842 24 26.842zM24 24.842c-.275 0-.5.224-.5.5s.225.5.5.5.5-.224.5-.5S24.275 24.842 24 24.842zM25.009 18.883c-.139 0-.277-.058-.376-.17-1.044-1.189-2.551-1.872-4.133-1.872-1.17 0-2.333.384-3.273 1.081-.222.165-.535.119-.699-.104-.165-.222-.118-.535.104-.699 1.112-.823 2.486-1.277 3.869-1.277 1.87 0 3.65.806 4.885 2.211.182.208.161.523-.046.706C25.244 18.842 25.126 18.883 25.009 18.883zM26.421 21.88c-.241 0-.453-.175-.493-.421-.025-.163-.06-.324-.1-.484-.041-.158-.09-.316-.145-.472-.092-.261.045-.546.306-.638.261-.092.546.046.638.306.064.183.121.369.17.557.048.19.088.381.119.573.043.273-.143.529-.415.573C26.474 21.878 26.447 21.88 26.421 21.88zM13.397 14.461c-.073 0-.148-.016-.219-.05-.248-.121-.352-.42-.231-.668C13.309 13 13.5 12.169 13.5 11.342c0-.964-.255-1.916-.736-2.75-.139-.239-.057-.545.183-.683s.545-.056.683.183c.57.987.871 2.111.871 3.25 0 .978-.226 1.959-.652 2.838C13.761 14.358 13.583 14.461 13.397 14.461zM12.016 7.383c-.119 0-.238-.042-.333-.127-.069-.062-.139-.121-.21-.179-.069-.057-.143-.113-.217-.167-.223-.164-.27-.477-.105-.699s.478-.269.699-.105c.086.063.171.129.254.196.085.069.166.139.245.21.206.184.224.5.04.706C12.289 7.327 12.152 7.383 12.016 7.383zM16.794 14.858c-.124 0-.248-.046-.345-.138-.2-.191-.208-.507-.018-.707 1.334-1.4 2.068-3.237 2.068-5.172 0-1.133-.263-2.27-.759-3.287-.121-.248-.019-.547.229-.668.249-.121.548-.019.669.23.563 1.153.86 2.441.86 3.726 0 2.193-.832 4.274-2.344 5.861C17.058 14.806 16.926 14.858 16.794 14.858z"/><circle cx="8" cy="14.342" r=".5" fill="#fed208"/></svg>